# xmcd
#
# Track frame offsets:
#	150
#	18901
#	40277
#	55128
#	73729
#	92105
#	112356
#	132982
#	148883
#	170390
#	196347
#	210747
#
# Disc length: 2997 seconds
#
# Revision: 0
# Processed by: cddbd v1.5.2PL0 Copyright (c) Steve Scherf et al.
# Submitted via: dBpowerAMP V4.0
#
DISCID=b80bb30c
DTITLE=Medicine Crow - Logan St
DYEAR=1900
DGENRE=blues
TTITLE0=Sometimes
TTITLE1=Logan Street Blues
TTITLE2=Old Wooden Guitars
TTITLE3=Pre Millenial Homesick Blues
TTITLE4=Carlisle Blues
TTITLE5=Autum Mist
TTITLE6=Ernesto
TTITLE7=Almighty Jah
TTITLE8=The Time Before Forever
TTITLE9=Once She Was A Maiden Fair
TTITLE10=Hallelujah Hooray
TTITLE11=Snow On The Roof
EXTD=Medicine Crow 2009
EXTT0=
EXTT1=
EXTT2=
EXTT3=
EXTT4=
EXTT5=
EXTT6=
EXTT7=
EXTT8=
EXTT9=
EXTT10=
EXTT11=
PLAYORDER=
